<svg xmlns="http://www.w3.org/2000/svg" viewBox="470 320 760 760" role="img" aria-labelledby="favicon-title favicon-desc">
  <title id="favicon-title">All Heart Performance Favicon</title>
  <desc id="favicon-desc">Square favicon mark preserving the original relationship between the heart and performance line.</desc>

  <!-- performance-line -->
  <g id="performance-line" fill="#101010" fill-rule="evenodd">
    <path d="M777 693C799 674 824 655 841 637C853 625 862 615 868 605C874 596 878 588 881 581C886 584 891 588 894 592C890 604 884 614 875 623C866 635 854 647 842 658L897 630C921 618 943 603 962 587C981 572 1002 554 1026 534C1063 499 1097 466 1128 437C1149 418 1171 400 1193 382C1215 365 1237 349 1260 334C1279 322 1297 312 1315 304L1213 384L1044 546L967 609L912 644L861 669L806 688L779 695ZM240 748C273 747 307 743 343 736C385 729 430 721 477 710C522 699 563 688 594 679C631 667 663 656 691 646C699 650 706 653 713 657C704 662 694 666 685 669C652 681 617 692 581 702C541 713 500 723 460 731C419 739 379 745 342 747C303 749 268 750 240 748Z"/>
  </g>

  <!-- heart-mark -->
  <g id="heart-mark" fill="#ba0f19" fill-rule="evenodd">
    <path d="M641 542C644 531 649 520 654 512C658 506 663 501 669 498C681 492 695 488 712 486C729 487 746 495 761 508C766 513 770 518 773 524C777 519 780 514 781 511C785 507 789 503 793 500C797 497 801 494 804 493C816 489 828 486 840 486C853 487 864 491 872 496C879 499 884 504 888 510C895 518 900 528 902 538C905 551 904 565 900 576C898 582 895 586 892 590C890 586 887 582 883 579C886 569 888 558 887 548C887 542 886 537 884 533C881 526 879 523 877 521C874 518 872 515 869 513C866 510 863 508 860 507C856 505 852 504 849 503C842 501 835 501 828 502C818 503 810 506 804 511C796 516 790 522 785 529C781 535 777 542 773 549C769 542 764 534 758 526C754 522 750 518 746 514C742 510 737 508 732 506C728 504 723 503 717 502C712 502 706 502 701 502C695 503 690 505 685 507C681 509 677 512 674 514C669 519 665 524 662 529C658 536 656 541 656 545C655 551 655 558 656 565C658 573 660 579 661 583C665 592 670 600 676 608C685 620 695 631 706 640C712 646 718 650 723 653L713 657L695 648L668 621L653 600L642 573Z"/>
  </g>
</svg>
