<svg xmlns="http://www.w3.org/2000/svg" viewBox="0 0 1536 1536" role="img" aria-labelledby="logo-title logo-desc">
  <title id="logo-title">All Heart Performance</title>
  <desc id="logo-desc">Vector recreation of the approved All Heart Performance logo from supplied PNG references.</desc>

  <defs id="join-transition-defs">
    <linearGradient id="join-transition-gradient-logo-master" x1="0" y1="0.12" x2="1" y2="0.9">
      <stop offset="0" stop-color="#ba0f19"/>
      <stop offset="0.5" stop-color="#7f1116"/>
      <stop offset="1" stop-color="#101010"/>
    </linearGradient>
    <linearGradient id="join-heart-return-gradient-logo-master" x1="0.45" y1="1" x2="0.55" y2="0">
      <stop offset="0" stop-color="#101010"/>
      <stop offset="0.22" stop-color="#4b1012"/>
      <stop offset="0.48" stop-color="#9d1018"/>
      <stop offset="1" stop-color="#ba0f19"/>
    </linearGradient>
    <clipPath id="join-transition-clip-logo-master" clipPathUnits="userSpaceOnUse">
      <path d="M777 693C799 674 824 655 841 637C853 625 862 615 868 605C874 596 878 588 881 581C886 584 891 588 894 592C890 604 884 614 875 623C866 635 854 647 842 658L897 630C921 618 943 603 962 587C981 572 1002 554 1026 534C1063 499 1097 466 1128 437C1149 418 1171 400 1193 382C1215 365 1237 349 1260 334C1279 322 1297 312 1315 304L1213 384L1044 546L967 609L912 644L861 669L806 688L779 695ZM240 748C273 747 307 743 343 736C385 729 430 721 477 710C522 699 563 688 594 679C631 667 663 656 691 646C699 650 706 653 713 657C704 662 694 666 685 669C652 681 617 692 581 702C541 713 500 723 460 731C419 739 379 745 342 747C303 749 268 750 240 748Z"/>
    </clipPath>
    <clipPath id="join-heart-clip-logo-master" clipPathUnits="userSpaceOnUse">
      <path d="M641 542C644 531 649 520 654 512C658 506 663 501 669 498C681 492 695 488 712 486C729 487 746 495 761 508C766 513 770 518 773 524C777 519 780 514 781 511C785 507 789 503 793 500C797 497 801 494 804 493C816 489 828 486 840 486C853 487 864 491 872 496C879 499 884 504 888 510C895 518 900 528 902 538C905 551 904 565 900 576C898 582 895 586 892 590C890 586 887 582 883 579C886 569 888 558 887 548C887 542 886 537 884 533C881 526 879 523 877 521C874 518 872 515 869 513C866 510 863 508 860 507C856 505 852 504 849 503C842 501 835 501 828 502C818 503 810 506 804 511C796 516 790 522 785 529C781 535 777 542 773 549C769 542 764 534 758 526C754 522 750 518 746 514C742 510 737 508 732 506C728 504 723 503 717 502C712 502 706 502 701 502C695 503 690 505 685 507C681 509 677 512 674 514C669 519 665 524 662 529C658 536 656 541 656 545C655 551 655 558 656 565C658 573 660 579 661 583C665 592 670 600 676 608C685 620 695 631 706 640C712 646 718 650 723 653L713 657L695 648L668 621L653 600L642 573Z"/>
    </clipPath>
  </defs>

  <!-- heart-mark: traced from reference-original-line.png -->
  <g id="heart-mark" fill="#ba0f19" fill-rule="evenodd">
    <path d="M641 542C644 531 649 520 654 512C658 506 663 501 669 498C681 492 695 488 712 486C729 487 746 495 761 508C766 513 770 518 773 524C777 519 780 514 781 511C785 507 789 503 793 500C797 497 801 494 804 493C816 489 828 486 840 486C853 487 864 491 872 496C879 499 884 504 888 510C895 518 900 528 902 538C905 551 904 565 900 576C898 582 895 586 892 590C890 586 887 582 883 579C886 569 888 558 887 548C887 542 886 537 884 533C881 526 879 523 877 521C874 518 872 515 869 513C866 510 863 508 860 507C856 505 852 504 849 503C842 501 835 501 828 502C818 503 810 506 804 511C796 516 790 522 785 529C781 535 777 542 773 549C769 542 764 534 758 526C754 522 750 518 746 514C742 510 737 508 732 506C728 504 723 503 717 502C712 502 706 502 701 502C695 503 690 505 685 507C681 509 677 512 674 514C669 519 665 524 662 529C658 536 656 541 656 545C655 551 655 558 656 565C658 573 660 579 661 583C665 592 670 600 676 608C685 620 695 631 706 640C712 646 718 650 723 653L713 657L695 648L668 621L653 600L642 573Z"/>
  </g>

  <!-- performance-line: traced from reference-original-line.png and independently targetable -->
  <g id="performance-line" fill="#101010" fill-rule="evenodd">
    <path d="M777 693C799 674 824 655 841 637C853 625 862 615 868 605C874 596 878 588 881 581C886 584 891 588 894 592C890 604 884 614 875 623C866 635 854 647 842 658L897 630C921 618 943 603 962 587C981 572 1002 554 1026 534C1063 499 1097 466 1128 437C1149 418 1171 400 1193 382C1215 365 1237 349 1260 334C1279 322 1297 312 1315 304L1213 384L1044 546L967 609L912 644L861 669L806 688L779 695ZM240 748C273 747 307 743 343 736C385 729 430 721 477 710C522 699 563 688 594 679C631 667 663 656 691 646C699 650 706 653 713 657C704 662 694 666 685 669C652 681 617 692 581 702C541 713 500 723 460 731C419 739 379 745 342 747C303 749 268 750 240 748Z"/>
  </g>
  <!-- join-transition: edge-bound micro-fills clipped to the original silhouettes at the red-to-black junction -->
  <g id="join-transition">
    <g clip-path="url(#join-transition-clip-logo-master)">
      <path fill="url(#join-transition-gradient-logo-master)" opacity="0.68" d="M881 569C889 578 894 591 894 602C891 612 884 621 875 627C881 609 884 587 881 569Z"/>
    </g>
    <g clip-path="url(#join-heart-clip-logo-master)">
      <path fill="url(#join-heart-return-gradient-logo-master)" opacity="0.42" d="M889 547C895 556 896 566 893 577C891 584 887 590 882 594C887 580 888 561 889 547Z"/>
    </g>
  </g>

  <!-- wordmark-all-heart: traced from reference-heart-tagline.png -->
  <g id="wordmark-all-heart" fill="#101010" stroke="#101010" stroke-width="1.15" stroke-linejoin="round" stroke-linecap="round" paint-order="stroke fill" fill-rule="evenodd">
    <path d="M1111 817L1170 817L1170 818L1174 818L1174 819L1177 819L1177 820L1180 820L1186 823L1194 831L1195 835L1197 836L1198 843L1199 843L1198 863L1195 869L1193 870L1193 872L1189 876L1187 876L1181 881L1175 882L1174 885L1177 887L1177 889L1186 899L1188 904L1197 914L1199 919L1202 921L1201 924L1180 923L1153 886L1131 886L1130 887L1130 923L1129 924L1126 924L1126 923L1112 924L1111 923ZM201 920L212 898L212 895L216 889L216 886L223 873L223 870L228 862L228 859L239 837L239 834L244 826L246 818L247 817L266 817L273 831L273 834L277 840L277 843L280 847L280 850L283 854L285 862L287 863L287 866L290 870L290 873L293 877L296 887L300 893L300 896L305 904L305 907L311 918L312 924L292 923L291 918L283 902L283 899L281 898L243 898L243 899L232 898L229 900L227 908L219 924L218 923L217 924L206 924L206 923L201 924ZM953 921L965 897L967 889L980 863L980 860L991 838L991 835L995 829L995 826L998 822L999 817L1002 817L1002 816L1019 817L1022 823L1022 826L1024 828L1024 831L1035 853L1035 856L1040 864L1042 872L1050 887L1052 895L1059 908L1059 911L1062 915L1064 924L1045 923L1041 916L1039 908L1035 902L1035 899L1033 898L984 898L981 902L981 905L978 909L978 912L975 916L973 923L971 924L970 923L958 923L958 924L954 923L953 924ZM672 817L691 817L691 861L748 861L749 860L749 817L768 817L768 923L766 924L749 923L749 879L748 878L733 878L733 879L730 879L730 878L692 878L691 879L691 923L683 923L683 924L676 924L676 923L673 924L672 923ZM829 817L905 817L907 816L909 818L908 819L908 833L905 833L905 834L877 834L877 833L847 834L847 860L848 861L901 861L901 878L848 878L847 879L847 906L908 906L909 907L909 923L905 923L905 924L900 924L900 923L830 924L829 923ZM1243 817L1333 817L1333 833L1332 834L1296 834L1296 923L1295 924L1293 923L1279 924L1278 923L1278 834L1244 834L1243 833ZM356 817L375 817L375 906L431 906L432 908L432 920L431 921L432 922L430 924L428 923L427 924L393 924L393 923L392 924L376 924L376 923L358 924L356 923ZM478 921L479 921L479 817L497 817L497 905L498 906L554 906L554 923L480 924ZM1130 834L1130 869L1131 870L1167 869L1177 863L1179 856L1180 856L1180 847L1176 839L1174 839L1172 836L1167 835L1167 834L1139 834L1139 833ZM238 879L239 882L274 882L275 881L257 839L255 840L253 844L251 852L246 860L244 868ZM991 878L991 882L1026 882L1027 881L1024 875L1024 872L1022 870L1022 867L1018 861L1018 858L1015 854L1015 851L1009 839L1007 840L1005 848L1002 852L1002 855L999 859L999 862Z"/>
  </g>

  <!-- performance-text: traced from reference-heart-tagline.png -->
  <g id="performance-text" fill="#ba0f19" stroke="#ba0f19" stroke-width="1.15" stroke-linejoin="round" stroke-linecap="round" paint-order="stroke fill" fill-rule="evenodd">
    <path d="M633 999L634 999L634 995L635 995L636 991L638 990L638 988L642 984L644 984L648 981L652 981L652 980L663 980L663 981L666 981L666 982L672 984L677 989L677 991L679 992L679 995L680 995L680 998L681 998L681 1010L679 1012L678 1017L671 1024L669 1024L667 1026L663 1026L663 1027L650 1027L650 1026L647 1026L647 1025L643 1024L637 1018L637 1016L635 1015L634 1008L633 1008ZM452 981L479 981L479 982L482 982L483 984L485 984L488 987L489 992L490 992L489 1001L483 1008L480 1008L479 1011L481 1012L481 1014L483 1015L483 1017L486 1019L486 1021L489 1023L490 1026L482 1027L479 1024L479 1022L476 1020L476 1018L474 1017L474 1015L472 1014L472 1012L470 1010L460 1010L459 1011L459 1026L452 1026ZM739 981L766 981L766 982L769 982L770 984L772 984L775 987L776 993L777 993L776 1001L771 1007L766 1008L766 1011L768 1012L770 1017L774 1020L777 1027L768 1026L768 1024L765 1022L765 1020L762 1018L762 1016L759 1014L759 1012L757 1010L747 1010L746 1011L746 1027L739 1027ZM268 981L293 981L293 982L296 982L299 985L301 985L301 987L304 990L304 1002L298 1009L296 1009L294 1011L289 1011L289 1012L288 1011L286 1011L286 1012L277 1011L276 1012L276 1026L275 1027L269 1027L268 1026ZM835 981L844 981L845 984L847 985L847 987L849 988L849 990L851 991L851 993L853 994L853 996L855 997L855 999L858 1002L860 1001L860 999L862 998L862 996L864 995L864 993L866 992L866 990L868 989L868 987L870 986L870 984L873 981L881 981L881 1012L882 1012L881 1026L878 1026L878 1027L874 1026L874 995L873 994L868 999L868 1001L866 1002L866 1004L864 1005L864 1007L862 1008L862 1010L860 1011L859 1014L856 1013L854 1008L851 1006L851 1004L849 1003L849 1001L847 1000L847 998L843 994L842 995L842 1002L843 1002L843 1005L842 1005L842 1026L841 1027L836 1027L835 1026ZM938 1024L939 1024L939 1021L942 1017L942 1014L943 1014L943 1012L946 1008L946 1005L947 1005L948 1000L949 1000L949 998L952 994L952 991L954 989L954 986L955 986L956 982L958 980L959 981L964 980L966 982L967 987L970 991L970 994L971 994L971 996L974 1000L974 1003L975 1003L976 1008L979 1012L979 1015L982 1019L984 1027L977 1027L975 1022L974 1022L974 1019L971 1015L964 1015L964 1016L960 1016L960 1015L959 1016L952 1016L951 1015L951 1016L949 1016L948 1021L947 1021L946 1025L944 1027L938 1027ZM1040 987L1041 987L1041 981L1049 981L1050 984L1053 986L1053 988L1056 990L1056 992L1060 995L1060 997L1066 1003L1066 1005L1073 1012L1074 1011L1074 981L1081 981L1081 1026L1080 1027L1075 1027L1071 1023L1071 1021L1067 1018L1067 1016L1064 1014L1064 1012L1060 1009L1060 1007L1056 1004L1056 1002L1054 1001L1054 999L1050 995L1048 995L1048 1026L1047 1027L1040 1026L1041 1025ZM641 1000L641 1008L642 1008L643 1013L648 1018L650 1018L652 1020L655 1020L655 1021L665 1019L666 1017L668 1017L670 1015L670 1013L673 1009L673 998L672 998L671 994L668 992L668 990L666 990L665 988L662 988L662 987L652 987L652 988L648 989L643 994L642 1000ZM360 981L393 981L394 982L394 987L368 987L368 989L367 989L368 990L368 1000L390 1000L391 1001L391 1006L390 1007L368 1007L368 1020L394 1020L394 1026L393 1027L376 1027L376 1026L361 1027L360 1026ZM1237 981L1271 981L1271 987L1245 987L1244 988L1244 1000L1267 1000L1268 1001L1268 1006L1267 1007L1245 1007L1244 1008L1244 1019L1245 1020L1271 1020L1271 1026L1270 1027L1238 1027L1237 1026ZM1138 999L1139 999L1139 995L1140 995L1141 991L1143 990L1143 988L1146 985L1148 985L1149 983L1151 983L1153 981L1156 981L1156 980L1171 981L1171 982L1173 982L1173 983L1175 983L1179 986L1177 991L1174 992L1173 990L1171 990L1170 988L1167 988L1167 987L1156 987L1156 988L1154 988L1153 990L1150 991L1150 993L1147 996L1146 1007L1147 1007L1147 1011L1150 1014L1150 1016L1152 1018L1157 1019L1157 1020L1167 1020L1167 1019L1172 1018L1174 1015L1176 1015L1180 1020L1176 1024L1168 1026L1168 1027L1155 1027L1155 1026L1152 1026L1152 1025L1148 1024L1142 1018L1142 1016L1140 1015L1140 1012L1139 1012L1139 1009L1138 1009ZM547 981L580 981L581 982L580 987L555 987L554 988L554 1000L555 1001L578 1001L578 1007L577 1008L558 1008L558 1007L555 1007L554 1008L554 1026L553 1027L552 1026L551 1027L547 1026ZM746 988L746 1003L747 1004L762 1004L762 1003L767 1002L767 1000L769 998L769 993L768 993L767 989L765 989L763 987L747 987ZM459 988L459 1003L460 1004L475 1004L475 1003L478 1003L482 998L481 991L476 987L460 987ZM276 987L276 1005L291 1005L296 1001L297 994L296 994L296 991L294 989L292 989L290 987ZM953 1006L953 1009L969 1009L968 1004L967 1004L967 1002L964 998L964 995L963 995L962 991L959 992L957 1000L956 1000L956 1002Z"/>
  </g>

  <!-- divider-line -->
  <line id="divider-line" x1="267" y1="1095" x2="1273" y2="1095" stroke="#666666" stroke-width="4" stroke-linecap="butt"/>

  <!-- tagline-main: traced from reference-heart-tagline.png -->
  <g id="tagline-main" fill="#101010" stroke="#101010" stroke-width="1.15" stroke-linejoin="round" stroke-linecap="round" paint-order="stroke fill" fill-rule="evenodd">
    <path d="M904 1153L905 1153L905 1152L920 1152L920 1153L924 1153L924 1154L926 1154L927 1156L929 1156L929 1157L931 1158L931 1160L932 1160L932 1162L933 1162L933 1165L934 1165L934 1174L933 1174L933 1178L931 1179L931 1181L930 1181L928 1184L926 1184L925 1186L922 1186L922 1187L904 1187ZM967 1152L971 1152L972 1155L973 1155L973 1158L974 1158L974 1162L975 1162L975 1166L976 1166L976 1169L977 1169L977 1173L978 1173L979 1179L981 1178L982 1170L983 1170L983 1167L984 1167L985 1160L986 1160L986 1157L987 1157L987 1153L988 1153L988 1152L992 1152L992 1154L993 1154L993 1157L994 1157L994 1160L995 1160L995 1163L996 1163L996 1167L997 1167L997 1170L998 1170L998 1174L999 1174L1000 1179L1002 1178L1002 1173L1003 1173L1003 1169L1004 1169L1004 1166L1005 1166L1005 1162L1006 1162L1006 1159L1007 1159L1008 1152L1013 1152L1012 1160L1011 1160L1011 1163L1010 1163L1010 1166L1009 1166L1009 1169L1008 1169L1008 1173L1007 1173L1007 1176L1006 1176L1006 1179L1005 1179L1005 1182L1004 1182L1004 1186L1003 1186L1003 1187L998 1187L998 1186L997 1186L996 1179L995 1179L995 1176L994 1176L994 1173L993 1173L993 1169L992 1169L992 1165L991 1165L991 1162L989 1162L989 1165L988 1165L988 1168L987 1168L987 1172L986 1172L986 1176L985 1176L985 1179L984 1179L984 1182L983 1182L982 1187L976 1187L976 1183L975 1183L975 1180L974 1180L974 1176L973 1176L973 1172L972 1172L972 1169L971 1169L971 1166L970 1166L970 1162L969 1162L969 1159L968 1159ZM694 1152L700 1152L700 1153L702 1154L703 1159L704 1159L705 1163L707 1164L707 1167L708 1167L710 1173L712 1173L712 1171L713 1171L713 1169L714 1169L714 1167L715 1167L715 1165L716 1165L716 1163L717 1163L717 1161L718 1161L718 1159L719 1159L721 1153L722 1153L722 1152L728 1152L728 1187L723 1187L723 1162L721 1163L721 1165L720 1165L720 1167L719 1167L719 1169L718 1169L718 1171L717 1171L717 1173L716 1173L716 1175L715 1175L715 1177L714 1177L714 1179L713 1179L712 1181L710 1181L710 1180L708 1179L708 1177L707 1177L707 1175L706 1175L706 1173L705 1173L705 1171L704 1171L704 1169L703 1169L701 1163L699 1162L699 1187L694 1187ZM531 1153L532 1153L532 1152L537 1152L537 1153L538 1153L538 1155L539 1155L539 1157L540 1157L542 1163L544 1164L544 1167L545 1167L547 1173L549 1173L549 1172L550 1172L550 1169L551 1169L551 1167L552 1167L552 1165L553 1165L554 1162L555 1162L555 1159L556 1159L558 1153L559 1153L559 1152L565 1152L565 1187L561 1187L561 1186L560 1186L560 1165L561 1165L561 1161L558 1163L558 1165L557 1165L557 1167L556 1167L556 1169L555 1169L555 1172L554 1172L553 1176L551 1177L550 1181L547 1181L547 1180L545 1179L545 1177L544 1177L544 1175L543 1175L543 1173L542 1173L542 1171L541 1171L541 1169L540 1169L538 1163L536 1162L536 1187L531 1187ZM582 1152L598 1152L598 1153L603 1154L603 1155L606 1157L606 1160L607 1160L607 1167L606 1167L606 1169L605 1169L602 1173L599 1173L599 1174L587 1174L587 1176L586 1176L586 1184L587 1184L586 1187L582 1187ZM782 1153L783 1153L783 1152L787 1152L787 1153L789 1153L789 1155L790 1155L791 1158L794 1160L794 1162L796 1163L796 1165L799 1167L799 1169L802 1171L802 1173L803 1173L803 1174L805 1175L805 1177L807 1178L807 1153L808 1153L808 1152L812 1152L812 1187L807 1187L807 1186L805 1185L805 1183L801 1180L801 1178L799 1177L799 1175L796 1173L796 1171L794 1170L794 1168L791 1166L791 1164L790 1164L789 1162L787 1162L787 1187L783 1187L783 1186L782 1186L782 1177L783 1177L783 1171L782 1171ZM362 1153L363 1153L363 1152L367 1152L367 1153L370 1155L370 1157L372 1158L372 1160L375 1162L375 1164L378 1166L378 1168L381 1170L381 1172L383 1173L383 1175L384 1175L385 1177L387 1177L387 1152L391 1152L391 1162L392 1162L392 1166L391 1166L392 1186L391 1186L391 1187L386 1187L386 1186L385 1186L385 1184L382 1182L382 1180L381 1180L380 1177L377 1175L377 1173L376 1173L375 1170L372 1168L372 1166L370 1165L369 1162L367 1162L367 1187L362 1187ZM909 1157L909 1182L910 1182L910 1183L920 1183L920 1182L923 1182L924 1180L926 1180L926 1178L928 1177L928 1174L929 1174L929 1166L928 1166L927 1161L926 1161L924 1158L922 1158L922 1157L918 1157L918 1156L910 1156L910 1157ZM1086 1153L1087 1153L1087 1152L1090 1152L1090 1153L1091 1153L1091 1167L1109 1167L1109 1166L1110 1166L1110 1152L1114 1152L1114 1154L1115 1154L1115 1155L1114 1155L1114 1158L1115 1158L1115 1159L1114 1159L1114 1160L1115 1160L1115 1162L1114 1162L1114 1187L1110 1187L1110 1173L1109 1173L1108 1171L1092 1171L1092 1172L1091 1172L1091 1187L1086 1187ZM220 1159L221 1159L222 1155L225 1154L225 1153L227 1153L227 1152L239 1152L239 1153L241 1153L242 1155L244 1155L244 1158L243 1158L243 1159L240 1159L240 1158L238 1158L238 1157L236 1157L236 1156L229 1156L229 1157L227 1157L226 1160L225 1160L225 1162L226 1162L227 1165L232 1166L232 1167L239 1168L239 1169L241 1169L242 1171L244 1171L244 1173L245 1173L245 1182L244 1182L243 1185L241 1185L240 1187L236 1187L236 1188L229 1188L229 1187L225 1187L225 1186L223 1186L223 1185L220 1184L220 1181L221 1181L221 1180L224 1180L224 1181L227 1182L227 1183L237 1183L237 1182L240 1181L240 1175L239 1175L238 1173L236 1173L236 1172L232 1172L232 1171L228 1171L228 1170L224 1169L224 1168L221 1166L221 1164L220 1164ZM744 1153L745 1153L745 1152L767 1152L767 1154L768 1154L767 1156L750 1156L750 1157L749 1157L749 1167L765 1167L765 1168L766 1168L766 1171L750 1171L750 1172L749 1172L749 1183L767 1183L767 1184L768 1184L768 1187L745 1187L745 1186L744 1186ZM450 1152L473 1152L473 1156L456 1156L456 1157L455 1157L455 1167L471 1167L471 1168L472 1168L472 1171L456 1171L456 1172L455 1172L455 1183L473 1183L473 1185L474 1185L473 1187L450 1187ZM866 1153L867 1153L867 1152L889 1152L889 1156L871 1156L871 1167L887 1167L887 1168L888 1168L888 1171L872 1171L872 1172L871 1172L871 1183L889 1183L889 1187L866 1187ZM655 1175L656 1175L656 1152L678 1152L678 1153L679 1153L679 1156L662 1156L662 1157L661 1157L661 1167L677 1167L677 1171L661 1171L661 1175L660 1175L660 1176L661 1176L661 1177L660 1177L660 1182L661 1182L661 1183L678 1183L678 1184L679 1184L679 1187L656 1187L656 1178L655 1178ZM324 1152L346 1152L346 1153L347 1153L347 1156L329 1156L329 1167L345 1167L346 1170L345 1170L345 1171L329 1171L329 1173L328 1173L328 1175L329 1175L329 1176L328 1176L328 1181L329 1181L329 1183L347 1183L347 1187L324 1187ZM406 1164L407 1164L407 1161L409 1160L409 1158L410 1158L413 1154L415 1154L415 1153L417 1153L417 1152L425 1151L425 1152L429 1152L429 1153L433 1154L433 1155L436 1157L436 1159L434 1159L434 1160L431 1160L429 1157L426 1157L426 1156L420 1156L420 1157L416 1158L416 1159L413 1161L412 1166L411 1166L411 1174L412 1174L412 1177L414 1178L414 1180L417 1181L417 1182L419 1182L419 1183L427 1183L427 1182L430 1182L432 1179L434 1179L434 1180L436 1181L436 1183L434 1183L432 1186L430 1186L430 1187L426 1187L426 1188L420 1188L420 1187L416 1187L416 1186L414 1186L414 1185L408 1180L408 1178L407 1178L407 1176L406 1176ZM258 1164L259 1164L261 1158L262 1158L264 1155L266 1155L267 1153L269 1153L269 1152L274 1152L274 1151L276 1151L276 1152L281 1152L281 1153L285 1154L285 1155L288 1157L287 1160L284 1160L283 1158L281 1158L281 1157L279 1157L279 1156L272 1156L272 1157L268 1158L268 1159L265 1161L264 1166L263 1166L263 1174L264 1174L264 1177L266 1178L266 1180L268 1180L268 1181L271 1182L271 1183L280 1183L280 1182L282 1182L282 1181L285 1180L285 1179L288 1180L288 1183L287 1183L286 1185L282 1186L282 1187L279 1187L279 1188L272 1188L272 1187L268 1187L268 1186L266 1186L266 1185L260 1180L260 1178L259 1178L259 1175L258 1175ZM826 1152L852 1152L852 1156L842 1156L842 1186L841 1186L841 1187L837 1187L837 1160L836 1160L837 1158L836 1158L836 1156L826 1156ZM1046 1152L1072 1152L1072 1156L1062 1156L1062 1157L1061 1157L1061 1187L1057 1187L1057 1186L1056 1186L1056 1156L1046 1156ZM621 1152L625 1152L625 1156L626 1156L626 1173L625 1173L625 1182L626 1182L626 1183L641 1183L641 1184L642 1184L642 1187L621 1187ZM587 1156L587 1170L597 1170L597 1169L599 1169L599 1168L601 1167L601 1165L602 1165L602 1161L601 1161L601 1159L600 1159L599 1157L597 1157L597 1156ZM1027 1152L1031 1152L1031 1153L1032 1153L1032 1155L1031 1155L1031 1157L1032 1157L1032 1158L1031 1158L1032 1186L1031 1186L1031 1187L1027 1187ZM302 1153L303 1153L303 1152L307 1152L307 1187L303 1187L303 1184L302 1184L302 1177L303 1177L303 1159L302 1159L302 1158L303 1158L303 1155L302 1155ZM510 1152L514 1152L514 1187L510 1187Z"/>
  </g>

  <!-- tagline-heart: traced from reference-heart-tagline.png -->
  <g id="tagline-heart" fill="#b58b1d" stroke="#b58b1d" stroke-width="1.15" stroke-linejoin="round" stroke-linecap="round" paint-order="stroke fill" fill-rule="evenodd">
    <path d="M1226 1179L1227 1179L1228 1173L1229 1173L1229 1171L1231 1170L1231 1168L1233 1167L1233 1165L1234 1165L1236 1162L1238 1162L1239 1160L1241 1160L1241 1159L1243 1159L1243 1158L1246 1158L1245 1160L1243 1160L1243 1161L1240 1163L1240 1165L1239 1165L1238 1168L1236 1169L1236 1171L1235 1171L1235 1173L1234 1173L1234 1175L1233 1175L1233 1178L1232 1178L1232 1186L1233 1186L1233 1188L1235 1188L1235 1189L1240 1189L1240 1188L1242 1188L1242 1187L1247 1183L1247 1181L1251 1178L1251 1175L1252 1175L1252 1172L1253 1172L1253 1169L1254 1169L1254 1161L1252 1160L1252 1158L1253 1158L1253 1160L1255 1160L1255 1161L1257 1160L1257 1158L1263 1158L1263 1160L1261 1161L1261 1165L1260 1165L1260 1168L1259 1168L1259 1172L1258 1172L1258 1174L1257 1174L1257 1177L1256 1177L1256 1179L1255 1179L1255 1183L1254 1183L1254 1186L1253 1186L1253 1188L1256 1189L1256 1188L1258 1188L1258 1187L1262 1184L1261 1187L1260 1187L1259 1189L1257 1189L1257 1190L1255 1190L1255 1191L1250 1191L1250 1192L1249 1192L1249 1191L1247 1190L1248 1184L1246 1184L1246 1185L1245 1185L1242 1189L1240 1189L1239 1191L1231 1192L1231 1191L1229 1191L1229 1190L1226 1188ZM1191 1175L1192 1175L1194 1169L1197 1167L1197 1165L1198 1165L1200 1162L1202 1162L1203 1160L1206 1160L1206 1159L1210 1158L1209 1160L1207 1160L1207 1161L1201 1166L1201 1168L1200 1168L1200 1170L1199 1170L1199 1174L1208 1173L1208 1172L1212 1171L1213 1169L1215 1169L1215 1167L1217 1166L1217 1163L1218 1163L1218 1162L1217 1162L1217 1160L1216 1160L1215 1158L1213 1158L1213 1157L1218 1157L1218 1158L1220 1158L1220 1159L1222 1160L1222 1162L1223 1162L1223 1163L1222 1163L1222 1167L1221 1167L1218 1171L1216 1171L1216 1172L1214 1172L1214 1173L1206 1174L1206 1175L1200 1175L1200 1176L1197 1177L1197 1183L1198 1183L1198 1186L1199 1186L1200 1188L1203 1188L1203 1189L1211 1188L1211 1187L1213 1187L1214 1185L1216 1185L1217 1183L1219 1183L1215 1188L1213 1188L1213 1189L1211 1189L1211 1190L1209 1190L1209 1191L1198 1192L1198 1191L1194 1190L1194 1189L1192 1188L1192 1186L1191 1186ZM1147 1187L1148 1187L1149 1181L1150 1181L1150 1179L1151 1179L1151 1177L1152 1177L1152 1174L1153 1174L1153 1172L1154 1172L1154 1167L1155 1167L1155 1164L1156 1164L1156 1162L1157 1162L1157 1160L1158 1160L1158 1157L1159 1157L1159 1154L1160 1154L1160 1150L1161 1150L1161 1147L1162 1147L1162 1144L1163 1144L1163 1141L1162 1141L1162 1140L1159 1140L1159 1138L1168 1138L1168 1137L1171 1137L1171 1138L1169 1139L1169 1143L1168 1143L1168 1146L1167 1146L1167 1149L1166 1149L1165 1155L1164 1155L1164 1157L1163 1157L1163 1159L1162 1159L1162 1163L1161 1163L1161 1166L1160 1166L1160 1169L1159 1169L1159 1170L1161 1170L1161 1172L1160 1172L1159 1175L1156 1177L1156 1180L1155 1180L1155 1182L1154 1182L1154 1186L1153 1186L1152 1191L1147 1191ZM1303 1188L1304 1188L1304 1185L1305 1185L1305 1182L1306 1182L1307 1175L1308 1175L1308 1173L1309 1173L1309 1171L1310 1171L1310 1167L1311 1167L1311 1165L1312 1165L1312 1160L1308 1160L1308 1159L1309 1159L1309 1158L1312 1158L1314 1155L1316 1155L1316 1154L1321 1150L1321 1148L1323 1148L1323 1149L1322 1149L1322 1152L1321 1152L1321 1154L1320 1154L1320 1158L1326 1158L1326 1160L1319 1160L1319 1161L1318 1161L1318 1163L1317 1163L1317 1165L1316 1165L1316 1167L1315 1167L1315 1172L1314 1172L1314 1175L1313 1175L1313 1178L1312 1178L1312 1181L1311 1181L1311 1184L1310 1184L1310 1188L1311 1188L1311 1189L1315 1188L1319 1183L1320 1183L1320 1185L1319 1185L1316 1189L1314 1189L1313 1191L1310 1191L1310 1192L1306 1192L1306 1191L1304 1191ZM1269 1190L1270 1190L1270 1187L1271 1187L1271 1185L1272 1185L1272 1182L1273 1182L1274 1176L1275 1176L1275 1174L1276 1174L1276 1171L1277 1171L1277 1168L1278 1168L1278 1165L1279 1165L1278 1161L1277 1161L1277 1160L1274 1160L1274 1159L1284 1158L1284 1157L1286 1158L1286 1160L1285 1160L1285 1162L1284 1162L1284 1165L1282 1166L1282 1170L1281 1170L1281 1172L1282 1172L1282 1171L1284 1171L1284 1169L1285 1169L1285 1167L1288 1165L1288 1163L1291 1162L1291 1160L1293 1160L1293 1159L1295 1159L1295 1158L1297 1158L1297 1157L1301 1158L1301 1163L1300 1163L1299 1165L1295 1165L1294 1162L1291 1162L1291 1163L1289 1164L1289 1166L1285 1169L1285 1171L1284 1171L1282 1174L1280 1173L1281 1176L1280 1176L1280 1179L1278 1180L1278 1183L1277 1183L1277 1186L1276 1186L1275 1191L1269 1191ZM1163 1166L1164 1166L1169 1160L1171 1160L1171 1159L1173 1159L1173 1158L1175 1158L1175 1157L1179 1157L1179 1158L1182 1159L1182 1166L1181 1166L1180 1172L1179 1172L1179 1174L1178 1174L1178 1177L1177 1177L1177 1179L1176 1179L1176 1182L1175 1182L1175 1184L1174 1184L1174 1188L1176 1188L1176 1189L1177 1189L1178 1187L1180 1187L1180 1186L1183 1184L1183 1185L1181 1186L1181 1188L1179 1188L1178 1190L1176 1190L1176 1191L1174 1191L1174 1192L1170 1192L1170 1191L1169 1191L1169 1184L1170 1184L1170 1182L1171 1182L1171 1179L1172 1179L1173 1174L1174 1174L1175 1169L1176 1169L1176 1161L1171 1161L1171 1162L1169 1162L1164 1168L1163 1168ZM1246 1157L1250 1157L1250 1158L1246 1158Z"/>
  </g>
</svg>
